<?xml version="1.0" standalone="no"?><!DOCTYPE svg PUBLIC "-//W3C//DTD SVG 1.1//EN" "http://www.w3.org/Graphics/SVG/1.1/DTD/svg11.dtd"><svg t="1754938211209" class="icon" viewBox="0 0 1024 1024" version="1.1" xmlns="http://www.w3.org/2000/svg" p-id="21328" xmlns:xlink="http://www.w3.org/1999/xlink" width="48" height="48"><path d="M611.84 69.333333l256.298667 88.277334a120.448 120.448 0 0 1 74.666666 153.130666L776.106667 794.837333a120.490667 120.490667 0 0 1-153.130667 74.666667l-256.256-88.234667a120.448 120.448 0 0 1-74.666667-153.130666L458.666667 144.042667a120.448 120.448 0 0 1 153.130666-74.666667zM109.824 296.576a117.973333 117.973333 0 0 0-73.216 150.058667l153.728 445.610666a118.314667 118.314667 0 0 0 150.272 73.301334l148.906667-51.2a1856.981333 1856.981333 0 0 1-62.122667-20.053334c-17.493333-5.888-34.474667-11.648-51.584-16.810666-49.877333-15.146667-93.013333-30.976-125.610667-64.554667-57.685333-63.189333-69.888-138.069333-36.608-224.64L333.226667 219.776l-223.402667 76.8z" p-id="21329" fill="#329a9c"></path></svg>